<svg id="svg" xmlns="http://www.w3.org/2000/svg" viewBox="0 0 2342 530.3"><defs><style>.cls-1{fill:#f1f0eb;}.cls-2{fill:#91f8b5;fill-rule:evenodd;}</style></defs><title>spywolf_tools_logo_light</title><path class="cls-1" d="M636.9,242c-2.4-15.5-15.4-36.7-45.4-36.7-24.3,0-41.5,15.8-41.5,35.8,0,15.4,9.4,27.3,27.5,31.2l32.2,7c35.7,7.9,55.7,30.3,55.7,60.3,0,33.3-28.5,63.6-74.2,63.6-51.8,0-76.4-33.3-80.3-63.9l28.5-9.1c2.1,23.9,19.1,46,51.5,46,29.7,0,44.2-15.4,44.2-34.2,0-15.5-10.6-28.8-32.1-33.3L572.4,302c-30.6-6.7-52.4-26.7-52.4-58.8s31.2-63.9,70.9-63.9c48.5,0,67.9,30,72.7,53.3Z"/><path class="cls-1" d="M691.8,456.2V252.9h27.6v22.7c7.8-14.5,25.1-26,48.7-26,43.7,0,67,33.6,67,76s-25.1,77-67.9,77c-22.4,0-39.4-10.6-47.2-23.6v77.2ZM763,274.7c-26.1,0-43.3,21.8-43.3,50.9s17.2,51.6,43.3,51.6,43-21.6,43-51.6-16.3-50.9-43-50.9Z"/><path class="cls-1" d="M868.1,459.6l36.4-77L841.8,252.9h32.7L920,353.5l43.6-100.6h30.6L899.4,459.6Z"/><path class="cls-1" d="M1263.9,183.8h30.6l-61.2,214.9h-30.6l-56.1-174.3-55.4,174.3h-29.7L999.3,183.8H1030L1077.2,352l54-168.2h31.2l55.1,170Z"/><path class="cls-1" d="M1447.2,325.6c0,44.6-30.9,77.6-74.5,77.6s-74.6-33-74.6-77.6,30.9-77.2,74.6-77.2S1447.2,281.4,1447.2,325.6Zm-29.1,0c0-33.6-21.2-51.8-45.4-51.8s-45.5,18.2-45.5,51.8,21.2,52.2,45.5,52.2S1418.1,359.6,1418.1,325.6Z"/><path class="cls-1" d="M1481.2,398.7V179.3h28.4V398.7Z"/><path class="cls-1" d="M1593.9,278.7v120h-29.4v-120h-27V252.9h27V228.4c0-32.5,21.5-50,47.9-50,9.7,0,15.7,2.1,16.9,3v25.5c-1.5-.7-5.1-1.9-12.4-1.9-10,0-23,4.9-23,24.9v23H1629v25.8Z"/><path class="cls-1" d="M1659.9,358.1a21,21,0,0,1,21.3,20.9v.3c0,11.8-9.4,20.9-21.3,20.9a20.6,20.6,0,0,1-20.9-20.3v-.6a20.8,20.8,0,0,1,20.4-21.2Z"/><g id="Camada_4" data-name="Camada 4"><path class="cls-2" d="M391.3,248.9V29.2L280.8,153.6H181.3L70.7,29.2V248.9L43,335.4,147.3,410l32.3,78.5H282.4L314.7,410,419,335.4ZM361.4,105.8V220.1l-56.2-49.2Zm-260.8,0,56.2,65.1-56.2,49.2Zm114,355.3H198.7l-33.5-80.4L77.1,323l16.6-46.1,121,72.8V461.1ZM231,323.7l-121-74,75.9-66.4h90l75.9,66.4Zm65.8,57-33.5,80.4H247.4V349.7l121-72.8L385,323Z"/></g><path class="cls-1" d="M1750.9,265.4h29.2v23.8h-29.2v70.1c0,12.3,5.1,18.5,18.8,18.5a59.3,59.3,0,0,0,10.4-1.1v22.4a59.7,59.7,0,0,1-17.9,2.5c-23,0-37.6-14-37.6-38.4v-74h-25.8V265.4h7.3c14.6,0,20.7-8.9,20.7-20.7V222.8h24.1Z"/><path class="cls-1" d="M1940.3,332.7c0,41.2-28.5,71.7-68.9,71.7s-68.9-30.5-68.9-71.7,28.6-71.5,68.9-71.5S1940.3,291.8,1940.3,332.7Zm-26.9,0c0-31.1-19.6-47.9-42-47.9s-42,16.8-42,47.9,19.6,48.2,42,48.2S1913.4,364.1,1913.4,332.7Z"/><path class="cls-1" d="M2100.6,332.7c0,41.2-28.6,71.7-68.9,71.7s-68.9-30.5-68.9-71.7,28.5-71.5,68.9-71.5S2100.6,291.8,2100.6,332.7Zm-26.9,0c0-31.1-19.6-47.9-42-47.9s-42,16.8-42,47.9,19.6,48.2,42,48.2S2073.7,364.1,2073.7,332.7Z"/><path class="cls-1" d="M2134.2,400.2V197.4h26.4V400.2Z"/><path class="cls-1" d="M2216.6,356.8c1.7,14,12.3,25.2,31.4,25.2,14.8,0,23-8.4,23-17.9s-6.2-14.9-17.4-17.4l-23-5.1c-21-4.4-33.6-18.7-33.6-37.8,0-23,21.6-42.6,47.9-42.6,37,0,48.5,24.1,51.3,36.2l-23.3,8.7c-1.1-7-6.7-22.5-28-22.5-13.5,0-22.4,8.7-22.4,18s5,14,15.4,16.2l21.8,4.8c24.4,5.3,37.3,20.2,37.3,40.1s-16,41.7-49.3,41.7c-37,0-52.7-23.8-54.9-39.2Z"/></svg>